<?xml version="1.0" encoding="UTF-8" standalone="no"?><svg xmlns="http://www.w3.org/2000/svg" xmlns:xlink="http://www.w3.org/1999/xlink" contentStyleType="text/css" height="191px" preserveAspectRatio="none" style="width:504px;height:191px;background:#FFFFFF;" version="1.1" viewBox="0 0 504 191" width="504px" zoomAndPan="magnify"><defs/><g><rect fill="#F1F1F1" height="108.0469" rx="5" ry="5" style="stroke:#F1F1F1;stroke-width:1.5;" width="222" x="10" y="46.5"/><text fill="#000000" font-family="sans-serif" font-size="14" font-weight="bold" lengthAdjust="spacing" textLength="30" x="15" y="63.0332">type</text><text fill="#000000" font-family="sans-serif" font-size="14" font-style="italic" lengthAdjust="spacing" textLength="69" x="133" y="63.0332">Probe type</text><line style="stroke:#000000;stroke-width:1.0;" x1="128" x2="128" y1="46.5" y2="68.1094"/><line style="stroke:#000000;stroke-width:1.0;" x1="10" x2="232" y1="68.1094" y2="68.1094"/><text fill="#000000" font-family="sans-serif" font-size="14" font-weight="bold" lengthAdjust="spacing" textLength="51" x="15" y="84.6426">target?</text><text fill="#000000" font-family="sans-serif" font-size="14" lengthAdjust="spacing" textLength="12" x="133" y="84.6426">   </text><line style="stroke:#000000;stroke-width:1.0;" x1="128" x2="128" y1="68.1094" y2="89.7188"/><line style="stroke:#000000;stroke-width:1.0;" x1="10" x2="232" y1="89.7188" y2="89.7188"/><text fill="#000000" font-family="sans-serif" font-size="14" font-weight="bold" lengthAdjust="spacing" textLength="108" x="15" y="106.252">implementation</text><text fill="#000000" font-family="sans-serif" font-size="14" lengthAdjust="spacing" textLength="12" x="133" y="106.252">   </text><line style="stroke:#000000;stroke-width:1.0;" x1="128" x2="128" y1="89.7188" y2="111.3281"/><line style="stroke:#000000;stroke-width:1.0;" x1="10" x2="232" y1="111.3281" y2="111.3281"/><text fill="#000000" font-family="sans-serif" font-size="14" font-weight="bold" lengthAdjust="spacing" textLength="69" x="15" y="127.8613">requires?</text><text fill="#000000" font-family="sans-serif" font-size="14" font-style="italic" lengthAdjust="spacing" textLength="94" x="133" y="127.8613">Characteristics</text><line style="stroke:#000000;stroke-width:1.0;" x1="128" x2="128" y1="111.3281" y2="132.9375"/><line style="stroke:#000000;stroke-width:1.0;" x1="10" x2="232" y1="132.9375" y2="132.9375"/><text fill="#000000" font-family="sans-serif" font-size="14" font-weight="bold" lengthAdjust="spacing" textLength="57" x="15" y="149.4707">runFor?</text><text fill="#000000" font-family="sans-serif" font-size="14" font-style="italic" lengthAdjust="spacing" textLength="94" x="133" y="149.4707">Characteristics</text><line style="stroke:#000000;stroke-width:1.0;" x1="128" x2="128" y1="132.9375" y2="154.5469"/><rect fill="none" height="108.0469" rx="5" ry="5" style="stroke:#000000;stroke-width:1.5;" width="222" x="10" y="46.5"/><rect fill="#F1F1F1" height="64.8281" rx="5" ry="5" style="stroke:#F1F1F1;stroke-width:1.5;" width="198" x="281.5" y="10"/><text fill="#000000" font-family="sans-serif" font-size="14" font-weight="bold" lengthAdjust="spacing" textLength="30" x="286.5" y="26.5332">type</text><text fill="#000000" font-family="sans-serif" font-size="14" font-weight="bold" lengthAdjust="spacing" textLength="48" x="350.5" y="26.5332">Server</text><text fill="#000000" font-family="sans-serif" font-size="14" lengthAdjust="spacing" textLength="3" x="402.5" y="26.5332">|</text><text fill="#000000" font-family="sans-serif" font-size="14" font-weight="bold" lengthAdjust="spacing" textLength="65" x="409.5" y="26.5332">Database</text><line style="stroke:#000000;stroke-width:1.0;" x1="345.5" x2="345.5" y1="10" y2="31.6094"/><line style="stroke:#000000;stroke-width:1.0;" x1="281.5" x2="479.5" y1="31.6094" y2="31.6094"/><text fill="#000000" font-family="sans-serif" font-size="14" font-weight="bold" lengthAdjust="spacing" textLength="54" x="286.5" y="48.1426">version</text><text fill="#000000" font-family="sans-serif" font-size="14" font-style="italic" lengthAdjust="spacing" textLength="97" x="350.5" y="48.1426">Version pattern</text><line style="stroke:#000000;stroke-width:1.0;" x1="345.5" x2="345.5" y1="31.6094" y2="53.2188"/><line style="stroke:#000000;stroke-width:1.0;" x1="281.5" x2="479.5" y1="53.2188" y2="53.2188"/><text fill="#000000" font-family="sans-serif" font-size="14" font-weight="bold" lengthAdjust="spacing" textLength="10.4375" x="286.5" y="69.752">…</text><text fill="#000000" font-family="sans-serif" font-size="14" lengthAdjust="spacing" textLength="10" x="350.5" y="69.752">…</text><line style="stroke:#000000;stroke-width:1.0;" x1="345.5" x2="345.5" y1="53.2188" y2="74.8281"/><rect fill="none" height="64.8281" rx="5" ry="5" style="stroke:#000000;stroke-width:1.5;" width="198" x="281.5" y="10"/><rect fill="#F1F1F1" height="86.4375" rx="5" ry="5" style="stroke:#F1F1F1;stroke-width:1.5;" width="223" x="269" y="93.5"/><text fill="#000000" font-family="sans-serif" font-size="14" font-weight="bold" lengthAdjust="spacing" textLength="109" x="274" y="110.0332">probe_param_1</text><text fill="#000000" font-family="sans-serif" font-size="14" font-style="italic" lengthAdjust="spacing" textLength="69" x="393" y="110.0332">Expression</text><line style="stroke:#000000;stroke-width:1.0;" x1="388" x2="388" y1="93.5" y2="115.1094"/><line style="stroke:#000000;stroke-width:1.0;" x1="269" x2="492" y1="115.1094" y2="115.1094"/><text fill="#000000" font-family="sans-serif" font-size="14" font-weight="bold" lengthAdjust="spacing" textLength="109" x="274" y="131.6426">probe_param_2</text><text fill="#000000" font-family="sans-serif" font-size="14" font-style="italic" lengthAdjust="spacing" textLength="69" x="393" y="131.6426">Expression</text><line style="stroke:#000000;stroke-width:1.0;" x1="388" x2="388" y1="115.1094" y2="136.7188"/><line style="stroke:#000000;stroke-width:1.0;" x1="269" x2="492" y1="136.7188" y2="136.7188"/><text fill="#000000" font-family="sans-serif" font-size="14" font-weight="bold" lengthAdjust="spacing" textLength="10.4375" x="274" y="153.252">…</text><text fill="#000000" font-family="sans-serif" font-size="14" lengthAdjust="spacing" textLength="10" x="393" y="153.252">…</text><line style="stroke:#000000;stroke-width:1.0;" x1="388" x2="388" y1="136.7188" y2="158.3281"/><line style="stroke:#000000;stroke-width:1.0;" x1="269" x2="492" y1="158.3281" y2="158.3281"/><text fill="#000000" font-family="sans-serif" font-size="14" font-weight="bold" lengthAdjust="spacing" textLength="77" x="274" y="174.8613">transform?</text><text fill="#000000" font-family="sans-serif" font-size="14" font-style="italic" lengthAdjust="spacing" textLength="94" x="393" y="174.8613">Data transform</text><line style="stroke:#000000;stroke-width:1.0;" x1="388" x2="388" y1="158.3281" y2="179.9375"/><rect fill="none" height="86.4375" rx="5" ry="5" style="stroke:#000000;stroke-width:1.5;" width="223" x="269" y="93.5"/><path d="M220,78.5 L233,78.5 C246.5234,78.5 260.551,77.0448 274.3333,74.7196 " fill="none" style="stroke:#000000;stroke-width:1.0;stroke-dasharray:3.0,3.0;"/><path d="M274.8843,77.7704 L276.6214,74.3064 L273.7823,71.6689 L281.9602,73.3421 L274.8843,77.7704 " fill="#000000" style="stroke:#000000;stroke-width:1.0;"/><ellipse cx="220" cy="78.5" fill="#000000" rx="3" ry="3" style="stroke:#000000;stroke-width:1.0;"/><path d="M220,99.5 L233,99.5 C242.3445,99.5 251.9249,100.2118 261.4959,101.438 " fill="none" style="stroke:#000000;stroke-width:1.0;stroke-dasharray:3.0,3.0;"/><path d="M261.0599,104.5056 L263.7966,101.765 L261.9318,98.3704 L269.1649,102.5279 L261.0599,104.5056 " fill="#000000" style="stroke:#000000;stroke-width:1.0;"/><ellipse cx="220" cy="99.5" fill="#000000" rx="3" ry="3" style="stroke:#000000;stroke-width:1.0;"/><!--MD5=[4d16919b75055c93b625d27b9f0de206]
@startjson
{
    "type": "<i>Probe type</i>",
    "target?": {
        "type": "<b>Server</b> | <b>Database</b>",
        "version": "<i>Version pattern</i>",
        "…": "…"
    },
    "implementation": {
        "probe_param_1": "<i>Expression</i>",
        "probe_param_2": "<i>Expression</i>",
        "…": "…",
        "transform?": "<i>Data transform</i>"
    },
    "requires?": "<i>Characteristics</i>",
    "runFor?": "<i>Characteristics</i>"
}
@endjson

PlantUML version 1.2022.7(Mon Aug 22 20:01:30 TRT 2022)
(GPL source distribution)
Java Runtime: Java(TM) SE Runtime Environment
JVM: Java HotSpot(TM) 64-Bit Server VM
Default Encoding: UTF-8
Language: en
Country: US
--></g></svg>