<?xml version="1.0" encoding="UTF-8" standalone="no"?><svg xmlns="http://www.w3.org/2000/svg" xmlns:xlink="http://www.w3.org/1999/xlink" contentStyleType="text/css" height="350px" preserveAspectRatio="none" style="width:583px;height:350px;background:#FFFFFF;" version="1.1" viewBox="0 0 583 350" width="583px" zoomAndPan="magnify"><defs/><g><rect fill="#F1F1F1" height="280.9219" rx="5" ry="5" style="stroke:#F1F1F1;stroke-width:1.5;" width="326" x="10" y="58"/><text fill="#000000" font-family="sans-serif" font-size="14" font-weight="bold" lengthAdjust="spacing" textLength="63" x="15" y="74.5332">itemType</text><text fill="#000000" font-family="sans-serif" font-size="14" font-weight="bold" lengthAdjust="spacing" textLength="67" x="122" y="74.5332">definition</text><text fill="#000000" font-family="sans-serif" font-size="14" lengthAdjust="spacing" textLength="3" x="193" y="74.5332">|</text><text fill="#000000" font-family="sans-serif" font-size="14" font-weight="bold" lengthAdjust="spacing" textLength="61" x="200" y="74.5332">override</text><line style="stroke:#000000;stroke-width:1.0;" x1="117" x2="117" y1="58" y2="79.6094"/><line style="stroke:#000000;stroke-width:1.0;" x1="10" x2="336" y1="79.6094" y2="79.6094"/><text fill="#000000" font-family="sans-serif" font-size="14" font-weight="bold" lengthAdjust="spacing" textLength="13" x="15" y="96.1426">id</text><text fill="#000000" font-family="sans-serif" font-size="14" font-style="italic" lengthAdjust="spacing" textLength="124" x="122" y="96.1426">Check ID(s) or tags</text><line style="stroke:#000000;stroke-width:1.0;" x1="117" x2="117" y1="79.6094" y2="101.2188"/><line style="stroke:#000000;stroke-width:1.0;" x1="10" x2="336" y1="101.2188" y2="101.2188"/><text fill="#000000" font-family="sans-serif" font-size="14" font-weight="bold" lengthAdjust="spacing" textLength="51" x="15" y="117.752">target?</text><text fill="#000000" font-family="sans-serif" font-size="14" lengthAdjust="spacing" textLength="12" x="122" y="117.752">   </text><line style="stroke:#000000;stroke-width:1.0;" x1="117" x2="117" y1="101.2188" y2="122.8281"/><line style="stroke:#000000;stroke-width:1.0;" x1="10" x2="336" y1="122.8281" y2="122.8281"/><text fill="#000000" font-family="sans-serif" font-size="14" font-weight="bold" lengthAdjust="spacing" textLength="88" x="15" y="139.3613">targetFilter?</text><text fill="#000000" font-family="sans-serif" font-size="14" lengthAdjust="spacing" textLength="12" x="122" y="139.3613">   </text><line style="stroke:#000000;stroke-width:1.0;" x1="117" x2="117" y1="122.8281" y2="144.4375"/><line style="stroke:#000000;stroke-width:1.0;" x1="10" x2="336" y1="144.4375" y2="144.4375"/><text fill="#000000" font-family="sans-serif" font-size="14" font-weight="bold" lengthAdjust="spacing" textLength="39" x="15" y="160.9707">tags?</text><text fill="#000000" font-family="sans-serif" font-size="14" lengthAdjust="spacing" textLength="12" x="122" y="160.9707">   </text><line style="stroke:#000000;stroke-width:1.0;" x1="117" x2="117" y1="144.4375" y2="166.0469"/><line style="stroke:#000000;stroke-width:1.0;" x1="10" x2="336" y1="166.0469" y2="166.0469"/><text fill="#000000" font-family="sans-serif" font-size="14" font-weight="bold" lengthAdjust="spacing" textLength="97" x="15" y="182.5801">displayName?</text><text fill="#000000" font-family="sans-serif" font-size="14" font-style="italic" lengthAdjust="spacing" textLength="144" x="122" y="182.5801">Short descriptive name</text><line style="stroke:#000000;stroke-width:1.0;" x1="117" x2="117" y1="166.0469" y2="187.6563"/><line style="stroke:#000000;stroke-width:1.0;" x1="10" x2="336" y1="187.6563" y2="187.6563"/><text fill="#000000" font-family="sans-serif" font-size="14" font-weight="bold" lengthAdjust="spacing" textLength="89" x="15" y="204.1895">description?</text><text fill="#000000" font-family="sans-serif" font-size="14" font-style="italic" lengthAdjust="spacing" textLength="105" x="122" y="204.1895">Long description</text><line style="stroke:#000000;stroke-width:1.0;" x1="117" x2="117" y1="187.6563" y2="209.2656"/><line style="stroke:#000000;stroke-width:1.0;" x1="10" x2="336" y1="209.2656" y2="209.2656"/><text fill="#000000" font-family="sans-serif" font-size="14" font-weight="bold" lengthAdjust="spacing" textLength="72" x="15" y="225.7988">message?</text><text fill="#000000" font-family="sans-serif" font-size="14" font-style="italic" lengthAdjust="spacing" textLength="116" x="122" y="225.7988">Message template</text><line style="stroke:#000000;stroke-width:1.0;" x1="117" x2="117" y1="209.2656" y2="230.875"/><line style="stroke:#000000;stroke-width:1.0;" x1="10" x2="336" y1="230.875" y2="230.875"/><text fill="#000000" font-family="sans-serif" font-size="14" font-weight="bold" lengthAdjust="spacing" textLength="44" x="15" y="247.4082">level?</text><text fill="#000000" font-family="sans-serif" font-size="14" font-weight="bold" lengthAdjust="spacing" textLength="80" x="122" y="247.4082">Information</text><text fill="#000000" font-family="sans-serif" font-size="14" lengthAdjust="spacing" textLength="3" x="206" y="247.4082">|</text><text fill="#000000" font-family="sans-serif" font-size="14" font-weight="bold" lengthAdjust="spacing" textLength="58" x="213" y="247.4082">Warning</text><text fill="#000000" font-family="sans-serif" font-size="14" lengthAdjust="spacing" textLength="3" x="275" y="247.4082">|</text><text fill="#000000" font-family="sans-serif" font-size="14" font-weight="bold" lengthAdjust="spacing" textLength="49" x="282" y="247.4082">Critical</text><line style="stroke:#000000;stroke-width:1.0;" x1="117" x2="117" y1="230.875" y2="252.4844"/><line style="stroke:#000000;stroke-width:1.0;" x1="10" x2="336" y1="252.4844" y2="252.4844"/><text fill="#000000" font-family="sans-serif" font-size="14" font-weight="bold" lengthAdjust="spacing" textLength="69" x="15" y="269.0176">helpLink?</text><text fill="#000000" font-family="sans-serif" font-size="14" font-style="italic" lengthAdjust="spacing" textLength="138" x="122" y="269.0176">Hyperlink to an article</text><line style="stroke:#000000;stroke-width:1.0;" x1="117" x2="117" y1="252.4844" y2="274.0938"/><line style="stroke:#000000;stroke-width:1.0;" x1="10" x2="336" y1="274.0938" y2="274.0938"/><text fill="#000000" font-family="sans-serif" font-size="14" font-weight="bold" lengthAdjust="spacing" textLength="59" x="15" y="290.627">probes?</text><text fill="#000000" font-family="sans-serif" font-size="14" lengthAdjust="spacing" textLength="12" x="122" y="290.627">   </text><line style="stroke:#000000;stroke-width:1.0;" x1="117" x2="117" y1="274.0938" y2="295.7031"/><line style="stroke:#000000;stroke-width:1.0;" x1="10" x2="336" y1="295.7031" y2="295.7031"/><text fill="#000000" font-family="sans-serif" font-size="14" font-weight="bold" lengthAdjust="spacing" textLength="75" x="15" y="312.2363">condition?</text><text fill="#000000" font-family="sans-serif" font-size="14" font-style="italic" lengthAdjust="spacing" textLength="132" x="122" y="312.2363">Condition expression</text><line style="stroke:#000000;stroke-width:1.0;" x1="117" x2="117" y1="295.7031" y2="317.3125"/><line style="stroke:#000000;stroke-width:1.0;" x1="10" x2="336" y1="317.3125" y2="317.3125"/><text fill="#000000" font-family="sans-serif" font-size="14" font-style="italic" font-weight="bold" lengthAdjust="spacing" textLength="81" x="15" y="333.8457">parameter 1</text><text fill="#000000" font-family="sans-serif" font-size="14" font-style="italic" lengthAdjust="spacing" textLength="89" x="122" y="333.8457">param 1 value</text><line style="stroke:#000000;stroke-width:1.0;" x1="117" x2="117" y1="317.3125" y2="338.9219"/><rect fill="none" height="280.9219" rx="5" ry="5" style="stroke:#000000;stroke-width:1.5;" width="326" x="10" y="58"/><rect fill="#F1F1F1" height="64.8281" rx="5" ry="5" style="stroke:#F1F1F1;stroke-width:1.5;" width="198" x="373" y="10"/><text fill="#000000" font-family="sans-serif" font-size="14" font-weight="bold" lengthAdjust="spacing" textLength="30" x="378" y="26.5332">type</text><text fill="#000000" font-family="sans-serif" font-size="14" font-weight="bold" lengthAdjust="spacing" textLength="48" x="442" y="26.5332">Server</text><text fill="#000000" font-family="sans-serif" font-size="14" lengthAdjust="spacing" textLength="3" x="494" y="26.5332">|</text><text fill="#000000" font-family="sans-serif" font-size="14" font-weight="bold" lengthAdjust="spacing" textLength="65" x="501" y="26.5332">Database</text><line style="stroke:#000000;stroke-width:1.0;" x1="437" x2="437" y1="10" y2="31.6094"/><line style="stroke:#000000;stroke-width:1.0;" x1="373" x2="571" y1="31.6094" y2="31.6094"/><text fill="#000000" font-family="sans-serif" font-size="14" font-weight="bold" lengthAdjust="spacing" textLength="54" x="378" y="48.1426">version</text><text fill="#000000" font-family="sans-serif" font-size="14" font-style="italic" lengthAdjust="spacing" textLength="97" x="442" y="48.1426">Version pattern</text><line style="stroke:#000000;stroke-width:1.0;" x1="437" x2="437" y1="31.6094" y2="53.2188"/><line style="stroke:#000000;stroke-width:1.0;" x1="373" x2="571" y1="53.2188" y2="53.2188"/><text fill="#000000" font-family="sans-serif" font-size="14" font-weight="bold" lengthAdjust="spacing" textLength="10.4375" x="378" y="69.752">…</text><text fill="#000000" font-family="sans-serif" font-size="14" lengthAdjust="spacing" textLength="10" x="442" y="69.752">…</text><line style="stroke:#000000;stroke-width:1.0;" x1="437" x2="437" y1="53.2188" y2="74.8281"/><rect fill="none" height="64.8281" rx="5" ry="5" style="stroke:#000000;stroke-width:1.5;" width="198" x="373" y="10"/><rect fill="#F1F1F1" height="64.8281" rx="5" ry="5" style="stroke:#F1F1F1;stroke-width:1.5;" width="198" x="373" y="93"/><text fill="#000000" font-family="sans-serif" font-size="14" font-weight="bold" lengthAdjust="spacing" textLength="30" x="378" y="109.5332">type</text><text fill="#000000" font-family="sans-serif" font-size="14" font-weight="bold" lengthAdjust="spacing" textLength="48" x="442" y="109.5332">Server</text><text fill="#000000" font-family="sans-serif" font-size="14" lengthAdjust="spacing" textLength="3" x="494" y="109.5332">|</text><text fill="#000000" font-family="sans-serif" font-size="14" font-weight="bold" lengthAdjust="spacing" textLength="65" x="501" y="109.5332">Database</text><line style="stroke:#000000;stroke-width:1.0;" x1="437" x2="437" y1="93" y2="114.6094"/><line style="stroke:#000000;stroke-width:1.0;" x1="373" x2="571" y1="114.6094" y2="114.6094"/><text fill="#000000" font-family="sans-serif" font-size="14" font-weight="bold" lengthAdjust="spacing" textLength="54" x="378" y="131.1426">version</text><text fill="#000000" font-family="sans-serif" font-size="14" font-style="italic" lengthAdjust="spacing" textLength="97" x="442" y="131.1426">Version pattern</text><line style="stroke:#000000;stroke-width:1.0;" x1="437" x2="437" y1="114.6094" y2="136.2188"/><line style="stroke:#000000;stroke-width:1.0;" x1="373" x2="571" y1="136.2188" y2="136.2188"/><text fill="#000000" font-family="sans-serif" font-size="14" font-weight="bold" lengthAdjust="spacing" textLength="10.4375" x="378" y="152.752">…</text><text fill="#000000" font-family="sans-serif" font-size="14" lengthAdjust="spacing" textLength="10" x="442" y="152.752">…</text><line style="stroke:#000000;stroke-width:1.0;" x1="437" x2="437" y1="136.2188" y2="157.8281"/><rect fill="none" height="64.8281" rx="5" ry="5" style="stroke:#000000;stroke-width:1.5;" width="198" x="373" y="93"/><rect fill="#F1F1F1" height="64.8281" rx="5" ry="5" style="stroke:#F1F1F1;stroke-width:1.5;" width="47" x="448.5" y="176"/><text fill="#000000" font-family="sans-serif" font-size="14" lengthAdjust="spacing" textLength="37" x="453.5" y="192.5332">Tag 1</text><line style="stroke:#000000;stroke-width:1.0;" x1="448.5" x2="495.5" y1="197.6094" y2="197.6094"/><text fill="#000000" font-family="sans-serif" font-size="14" lengthAdjust="spacing" textLength="37" x="453.5" y="214.1426">Tag 2</text><line style="stroke:#000000;stroke-width:1.0;" x1="448.5" x2="495.5" y1="219.2188" y2="219.2188"/><text fill="#000000" font-family="sans-serif" font-size="14" lengthAdjust="spacing" textLength="10" x="453.5" y="235.752">…</text><rect fill="none" height="64.8281" rx="5" ry="5" style="stroke:#000000;stroke-width:1.5;" width="47" x="448.5" y="176"/><rect fill="#F1F1F1" height="64.8281" rx="5" ry="5" style="stroke:#F1F1F1;stroke-width:1.5;" width="81" x="431.5" y="259"/><text fill="#000000" font-family="sans-serif" font-size="14" font-style="italic" lengthAdjust="spacing" textLength="71" x="436.5" y="275.5332">Probe ref 1</text><line style="stroke:#000000;stroke-width:1.0;" x1="431.5" x2="512.5" y1="280.6094" y2="280.6094"/><text fill="#000000" font-family="sans-serif" font-size="14" font-style="italic" lengthAdjust="spacing" textLength="71" x="436.5" y="297.1426">Probe ref 2</text><line style="stroke:#000000;stroke-width:1.0;" x1="431.5" x2="512.5" y1="302.2188" y2="302.2188"/><text fill="#000000" font-family="sans-serif" font-size="14" lengthAdjust="spacing" textLength="10" x="436.5" y="318.752">…</text><rect fill="none" height="64.8281" rx="5" ry="5" style="stroke:#000000;stroke-width:1.5;" width="81" x="431.5" y="259"/><path d="M324,111.5 L337,111.5 C357.2698,111.5 355.4879,93.7074 373,83.5 C375.8355,81.8472 378.7504,80.2268 381.72,78.6423 " fill="none" style="stroke:#000000;stroke-width:1.0;stroke-dasharray:3.0,3.0;"/><path d="M383.1723,81.4491 L383.8252,77.553 L380.2677,75.8354 L388.7371,75.0115 L383.1723,81.4491 " fill="#000000" style="stroke:#000000;stroke-width:1.0;"/><ellipse cx="324" cy="111.5" fill="#000000" rx="3" ry="3" style="stroke:#000000;stroke-width:1.0;"/><path d="M324,132.5 L337,132.5 C346.3173,132.5 355.9928,132.3304 365.6891,132.044 " fill="none" style="stroke:#000000;stroke-width:1.0;stroke-dasharray:3.0,3.0;"/><path d="M365.7906,135.1537 L368.0214,131.9679 L365.5876,128.9343 L373.4635,131.7903 L365.7906,135.1537 " fill="#000000" style="stroke:#000000;stroke-width:1.0;"/><ellipse cx="324" cy="132.5" fill="#000000" rx="3" ry="3" style="stroke:#000000;stroke-width:1.0;"/><path d="M324,154.5 L337,154.5 C342.5141,154.5 403.5525,179.8244 441.4816,195.7882 " fill="none" style="stroke:#000000;stroke-width:1.0;stroke-dasharray:3.0,3.0;"/><path d="M440.2585,198.69 L443.6579,196.7055 L442.7046,192.8865 L448.736,198.8459 L440.2585,198.69 " fill="#000000" style="stroke:#000000;stroke-width:1.0;"/><ellipse cx="324" cy="154.5" fill="#000000" rx="3" ry="3" style="stroke:#000000;stroke-width:1.0;"/><path d="M324,284.5 L337,284.5 C365.9246,284.5 398.301,286.1345 424.0394,287.8238 " fill="none" style="stroke:#000000;stroke-width:1.0;stroke-dasharray:3.0,3.0;"/><path d="M423.8296,290.9292 L426.3684,287.9811 L424.2491,284.7184 L431.8029,288.3481 L423.8296,290.9292 " fill="#000000" style="stroke:#000000;stroke-width:1.0;"/><ellipse cx="324" cy="284.5" fill="#000000" rx="3" ry="3" style="stroke:#000000;stroke-width:1.0;"/><!--MD5=[ac936d5e37d893447edc139581afd6f9]
@startjson
{
    "itemType": "<b>definition</b> | <b>override</b>",
    "id": "<i>Check ID(s) or tags</i>",
    "target?": {
        "type": "<b>Server</b> | <b>Database</b>",
        "version": "<i>Version pattern</i>",
        "…": "…"
    },
    "targetFilter?": {
        "type": "<b>Server</b> | <b>Database</b>",
        "version": "<i>Version pattern</i>",
        "…": "…"
    },
    "tags?": ["Tag 1", "Tag 2", "…"],
    "displayName?": "<i>Short descriptive name</i>",
    "description?": "<i>Long description</i>",
    "message?": "<i>Message template</i>",
    "level?": "<b>Information</b> | <b>Warning</b> | <b>Critical</b>",
    "helpLink?": "<i>Hyperlink to an article</i>",
    "probes?": [
        "<i>Probe ref 1</i>",
        "<i>Probe ref 2</i>",
        "…"
    ],
    "condition?": "<i>Condition expression</i>",
    "<i>parameter 1</i>": "<i>param 1 value</i>"
}
@endjson

PlantUML version 1.2022.7(Mon Aug 22 20:01:30 TRT 2022)
(GPL source distribution)
Java Runtime: Java(TM) SE Runtime Environment
JVM: Java HotSpot(TM) 64-Bit Server VM
Default Encoding: UTF-8
Language: en
Country: US
--></g></svg>